<?xml version="1.0" encoding="utf-8"?>
<!-- Generator: Adobe Illustrator 19.0.1, SVG Export Plug-In . SVG Version: 6.00 Build 0)  -->
<svg version="1.1" id="Layer_1" xmlns="http://www.w3.org/2000/svg" xmlns:xlink="http://www.w3.org/1999/xlink" x="0px" y="0px"
	 viewBox="0 0 83.152 80" style="enable-background:new 0 0 83.152 80;" xml:space="preserve">
<style type="text/css">
	.st0{fill:#F1F2F3;}
	.st1{fill:#E5E7E9;}
	.st2{fill:#FFFFFF;}
	.st3{fill:#D1D4D7;}
</style>
<polygon class="st0" points="82.151,10.833 13.467,10.833 13.467,80 82.152,80 82.152,10.833 "/>
<path class="st1" d="M13.467,10.833H5.919C3.202,10.833,1,8.632,1,5.915V80h12.467V10.833z"/>
<path class="st2" d="M81.646,10.833H5.414c-2.717,0-4.919-2.201-4.919-4.918C0.495,3.201,2.697,1,5.414,1h76.233
	C78.931,3.714,78.931,8.116,81.646,10.833L81.646,10.833z"/>
<path class="st2" d="M68.047,38.78H27.571c-1.033,0-1.872-0.839-1.872-1.872V25.602c0-1.033,0.839-1.872,1.872-1.872h40.477
	c1.033,0,1.872,0.839,1.872,1.872v11.306C69.92,37.941,69.081,38.78,68.047,38.78L68.047,38.78z"/>
<path class="st3" d="M27.57,39.78h40.478c1.584,0,2.872-1.289,2.872-2.872V25.602c0-1.583-1.288-2.872-2.872-2.872H27.57
	c-1.583,0-2.872,1.289-2.872,2.872v11.306C24.698,38.491,25.987,39.78,27.57,39.78z M26.698,25.602c0-0.481,0.391-0.872,0.872-0.872
	h40.478c0.48,0,0.872,0.391,0.872,0.872v11.306c0,0.481-0.392,0.872-0.872,0.872H27.57c-0.481,0-0.872-0.391-0.872-0.872
	C26.698,36.908,26.698,25.602,26.698,25.602z"/>
<g>
	<path class="st3" d="M83.085,10.506c-0.011-0.032-0.019-0.064-0.033-0.094c-0.048-0.103-0.108-0.199-0.191-0.283
		c-0.001-0.001-0.002-0.003-0.004-0.005C81.733,9,81.114,7.505,81.114,5.916c0-1.59,0.619-3.084,1.744-4.208
		c0.286-0.286,0.372-0.716,0.217-1.09C82.921,0.244,82.556,0,82.151,0H5.919C2.655,0,0,2.654,0,5.916V80h2V10.346
		c0.015,0.014,0.034,0.023,0.049,0.037c0.229,0.198,0.473,0.378,0.731,0.54c0.044,0.027,0.087,0.054,0.132,0.08
		c0.263,0.156,0.538,0.293,0.825,0.407c0.043,0.017,0.088,0.032,0.132,0.048c0.297,0.11,0.604,0.201,0.921,0.263
		c0.032,0.006,0.065,0.009,0.098,0.015c0.336,0.059,0.679,0.096,1.032,0.096h6.548V80h1.999V11.833h66.685V80h2V10.833
		c-0.001-0.022-0.011-0.04-0.013-0.061C83.133,10.681,83.116,10.593,83.085,10.506z M48.75,5.004h30.423
		c-0.034,0.301-0.058,0.604-0.058,0.911s0.024,0.61,0.058,0.911H48.75c-0.276,0-0.5,0.224-0.5,0.5s0.224,0.5,0.5,0.5h30.602
		c0.173,0.703,0.434,1.378,0.79,2.006H13.467H5.919C3.758,9.833,2,8.075,2,5.916C2,3.756,3.758,2,5.919,2h74.223
		c-0.356,0.628-0.617,1.302-0.79,2.004H48.75c-0.276,0-0.5,0.224-0.5,0.5S48.474,5.004,48.75,5.004z"/>
</g>
</svg>
