<?xml version="1.0" encoding="utf-8"?>
<!-- Generator: Adobe Illustrator 19.0.1, SVG Export Plug-In . SVG Version: 6.00 Build 0)  -->
<svg version="1.1" id="Layer_1" xmlns="http://www.w3.org/2000/svg" xmlns:xlink="http://www.w3.org/1999/xlink" x="0px" y="0px"
	 viewBox="0 0 225.774 122.408" style="enable-background:new 0 0 225.774 122.408;" xml:space="preserve">
<style type="text/css">
	.st0{fill:#FFFFFF;}
	.st1{fill:none;}
	.st2{fill:#FEFEFE;}
	.st3{fill:#EDEEEF;}
	.st4{fill:#DCDFE2;}
	.st5{fill:#D1D4D7;}
</style>
<path class="st0" d="M50.217,21.076C39.249,23.01,35.12,14.392,35.12,14.392s4.37-3.107,13.099-4.646s13.898-0.114,13.898-0.114
	S61.185,19.142,50.217,21.076L50.217,21.076z"/>
<path class="st0" d="M113.273,12.505c-11.137,0-13.707-9.204-13.707-9.204S104.409,1,113.273,1s13.707,2.301,13.707,2.301
	S124.409,12.505,113.273,12.505L113.273,12.505z"/>
<path class="st0" d="M175.556,20.948c-10.968-1.934-11.9-11.444-11.9-11.444s5.169-1.425,13.898,0.114
	c8.729,1.539,13.099,4.646,13.099,4.646S186.524,22.882,175.556,20.948L175.556,20.948z"/>
<polygon class="st1" points="83.248,39.379 83.248,36.876 82.733,36.314 "/>
<path class="st2" d="M83.248,39.379l-0.515-3.066l0.515,0.563v-3.661l-9.861,15.757l-14.952-9.358c0,0,9.01-14.798,14.476-23.97
	c1.149-1.93,2.769-3.469,4.385-4.674L62.107,9.631c0,0-0.365,9.411-11.895,11.444c-11.53,2.033-15.094-6.684-15.094-6.684
	l-14.836,6.929c0,0-6.861,3.607-9.228,9.847C7.262,41.15,1,57.281,1,57.281l16.431,6.605l7.136-17.259l13.186,74.78l58.494-10.173
	l-0.349-1.805H83.248V39.379z"/>
<path class="st3" d="M147.343,10.941l1.648-0.145c-3.107-2.25-6.197-3.247-6.197-3.247l-15.815-4.248c0,0-1.999,9.204-13.707,9.204
	S99.566,3.301,99.566,3.301L83.751,7.779c0,0-3.249,0.651-6.434,3.651h-0.01c-1.616,1-3.205,2.514-4.354,4.444
	c-5.467,9.172-14.435,23.855-14.435,23.855l14.871,9.301l9.861-15.815v3.661v2.503v70.05h12.648h33.952l12.865-73.103
	l-12.608,13.637l-13.181-11.827c0,0,11.402-13.016,18.378-21.099C139.662,11.984,147.343,10.941,147.343,10.941z"/>
<path class="st4" d="M214.719,31.041c-2.368-6.24-9.229-9.847-9.229-9.847l-14.837-6.929c0,0-3.567,8.717-15.097,6.684
	c-11.53-2.033-11.9-11.444-11.9-11.444l-16.313,1.439c0,0-7.681,1.042-12.04,6.096c-6.976,8.083-18.378,21.098-18.378,21.098
	l13.181,11.826l12.608-13.637l-12.865,73.103l-0.32,1.677l58.494,10.244l9.268-53.611l3.918-21.222l7.136,17.25l16.431-6.61
	C224.773,57.157,218.51,41.023,214.719,31.041z"/>
<path class="st5" d="M225.706,56.791c-0.063-0.161-6.306-16.241-10.053-26.105c-2.473-6.519-9.404-10.223-9.697-10.378
	c-0.008-0.004-0.017-0.004-0.025-0.008c-0.007-0.003-0.011-0.01-0.018-0.013l-14.762-6.894c-0.659-0.447-5.105-3.293-13.423-4.76
	c-8.32-1.466-13.473-0.312-14.241-0.118l-14.2,1.25c-3.055-2.143-5.991-3.107-6.187-3.169c-0.008-0.003-0.017-0.001-0.025-0.003
	c-0.007-0.002-0.013-0.008-0.02-0.01l-15.737-4.227C126.591,2.031,121.717,0,113.273,0c-8.453,0-13.327,2.035-14.047,2.357
	L83.491,6.583c-0.007,0.002-0.013,0.008-0.02,0.01c-0.009,0.003-0.017,0-0.026,0.003c-0.201,0.064-3.289,1.079-6.43,3.344
	L62.287,8.642c-0.77-0.194-5.922-1.348-14.242,0.118c-8.317,1.467-12.763,4.312-13.422,4.759L19.86,20.415
	c-0.007,0.003-0.011,0.01-0.018,0.014c-0.008,0.004-0.016,0.003-0.024,0.007c-0.294,0.155-7.225,3.858-9.699,10.377
	C6.373,40.678,0.131,56.758,0.068,56.919c-0.198,0.511,0.051,1.086,0.559,1.29l16.431,6.605c0.122,0.049,0.249,0.072,0.373,0.072
	c0.393,0,0.766-0.232,0.925-0.618l5.823-14.084l12.589,71.397c0.046,0.261,0.194,0.493,0.411,0.646
	c0.169,0.118,0.37,0.181,0.574,0.181c0.058,0,0.116-0.005,0.174-0.016l58.494-10.314c0.262-0.046,0.494-0.194,0.646-0.412
	c0.152-0.218,0.211-0.347,0.164-0.608l-0.138-0.628h31.565l-0.113,0.503c-0.097,0.544,0.267,0.992,0.811,1.088l58.494,10.279
	c0.058,0.011,0.116-0.002,0.174-0.002c0.204,0,0.405-0.071,0.575-0.19c0.217-0.153,0.365-0.39,0.41-0.652l9.266-53.567l3.303-17.88
	l5.843,14.132c0.159,0.386,0.531,0.618,0.924,0.618c0.125,0,0.251-0.024,0.373-0.072l16.431-6.606
	C225.655,57.877,225.905,57.302,225.706,56.791z M177.38,10.603c6.332,1.117,10.329,3.092,11.915,3.999
	c-1.285,1.946-5.385,6.804-13.565,5.362c-8.259-1.457-10.399-7.405-10.921-9.679C166.595,9.972,171.008,9.478,177.38,10.603z
	 M143.022,10.129c0.141-0.502,0.274-0.945,0.383-1.285c0.66,0.268,1.626,0.701,2.711,1.304c-0.803,0.168-1.981,0.464-3.338,0.945
	C142.861,10.749,142.943,10.422,143.022,10.129z M146.514,12.112c0.377,2.717,1.16,10.534-1.054,17.193
	c-0.061,0.174-0.122,0.348-0.187,0.521c-0.042,0.115-0.089,0.228-0.133,0.342c-0.355,0.895-0.775,1.77-1.258,2.615
	c-0.549,0.961-1.181,1.885-1.921,2.744l-0.008,0.009l-11.916,13.021l-11.708-10.506c2.521-2.88,11.787-13.473,17.731-20.361
	c1.131-1.311,2.514-2.333,3.922-3.133c0.78-0.443,1.566-0.818,2.322-1.131C144.013,12.72,145.565,12.317,146.514,12.112z M113.273,2
	c6.429,0,10.708,1.251,12.428,1.869c-0.811,1.87-3.355,6.307-9.533,7.393c-0.017,0.003-0.035,0.005-0.053,0.008
	c-0.387,0.067-0.793,0.117-1.209,0.156c-0.524,0.045-1.06,0.08-1.633,0.08c-0.573,0-1.109-0.034-1.634-0.078
	c-0.434-0.04-0.856-0.091-1.258-0.161c-0.006-0.001-0.012-0.002-0.018-0.003c-6.229-1.081-8.733-5.515-9.528-7.395
	C102.541,3.253,106.803,2,113.273,2z M48.393,10.73c6.332-1.118,10.763-0.627,12.563-0.318c-0.542,2.268-2.734,8.236-10.913,9.678
	c-0.564,0.099-1.097,0.159-1.62,0.207c-7.171,0.598-10.769-3.738-11.953-5.565C38.052,13.828,42.052,11.849,48.393,10.73z
	 M24.791,40.068c-0.051,2.081-0.393,4.179-1.158,6.197L16.885,62.59L2.29,56.722c1.384-3.568,6.468-16.692,9.699-25.198
	c1.722-4.54,6.074-7.659,7.916-8.817c1.282,2.418,4.683,9.47,4.889,16.475c0.003,0.224,0.006,0.447,0.002,0.672
	C24.796,39.925,24.792,39.996,24.791,40.068z M38.563,120.32L25.598,46.757c0.941-2.409,1.273-4.998,1.21-7.553
	c-0.003-0.249-0.017-0.503-0.026-0.75c-0.002-0.045-0.005-0.094-0.007-0.139c-0.326-7.381-3.688-14.093-5.071-16.551l12.969-6.058
	c0.517,0.891,1.482,2.28,3.036,3.562c2.076,1.713,5.609,3.523,10.965,3.019c0.025-0.002,0.049-0.005,0.074-0.007
	c0.532-0.052,1.075-0.119,1.643-0.219c0.362-0.064,0.714-0.136,1.056-0.215c5.625-1.278,8.486-4.334,9.906-6.747
	c1.022-1.737,1.454-3.373,1.635-4.386l11.844,1.043c-1.019,0.972-1.971,2.088-2.739,3.377c-5.402,9.064-14.342,23.815-14.432,23.963
	c-0.284,0.469-0.138,1.078,0.327,1.368l15.034,9.357c0.164,0.103,0.347,0.151,0.527,0.151c0.331,0,0.654-0.164,0.845-0.463
	l7.854-12.288v2.24v69.688c0,0.553,0.774,1.281,1.326,1.281h11.476L38.563,120.32z M86.891,15.363
	c-0.159-0.946-0.34-1.839-0.532-2.662c-0.451-1.944-0.948-3.508-1.287-4.472l13.834-3.716c0.878,2.331,3.857,7.979,12.123,8.862
	c0.057,0.007,0.111,0.015,0.168,0.021c0.198,0.019,0.399,0.035,0.603,0.048c0.476,0.035,0.963,0.06,1.472,0.06
	s0.996-0.025,1.472-0.06c0.204-0.014,0.405-0.029,0.603-0.048c0.057-0.006,0.112-0.015,0.168-0.021
	c8.266-0.884,11.245-6.531,12.123-8.862l13.849,3.719c-0.093,0.281-0.199,0.632-0.309,1.013c-0.224,0.757-0.476,1.707-0.717,2.797
	c-2.05,0.971-4.209,2.363-5.915,4.342c-6.894,7.988-18.259,20.963-18.373,21.093c-0.361,0.412-0.323,1.038,0.084,1.403
	l13.181,11.827c0.191,0.172,0.43,0.256,0.668,0.256c0.271,0,0.541-0.109,0.737-0.325l10.289-11.103l-12.123,68.895H96.733h-2.032
	H84.248V51.371V36.487v-2.764c0-0.001,0.164-0.239,0.165-0.24c1.344-2.207,2.198-4.68,2.579-7.205
	c0.041-0.248,0.111-0.495,0.145-0.744c0.005-0.041,0.031-0.082,0.035-0.123c0.466-3.549,0.21-7.062-0.291-10.048 M84.478,14.007
	c0.695,3.396,1.221,7.759,0.614,11.914c-0.036,0.221-0.072,0.442-0.115,0.663c-0.012,0.07-0.028,0.14-0.041,0.21
	c-0.412,2.04-1.112,4.047-2.216,5.902l-0.209,0.329l-1.36,2.138L73.239,47.6l-13.355-8.313c1.983-3.274,9.269-15.314,13.928-23.131
	c0.906-1.521,2.124-2.793,3.403-3.838c0.948-0.775,1.928-1.424,2.843-1.955c1.234-0.715,2.345-1.217,3.081-1.516
	c0.207,0.638,0.49,1.576,0.786,2.725c0.188,0.73,0.379,1.552,0.559,2.435 M200.185,46.524l-3.882,21.011l-9.097,52.587
	l-56.497-9.822l0.33-1.869l10.821-61.51l0.001-0.147l1.789-10.146c0.002-0.002,0.003-0.004,0.005-0.006
	c0.534-0.608,1.001-1.261,1.439-1.932c0.958-1.47,1.711-3.065,2.269-4.726c0.084-0.238,0.156-0.478,0.233-0.718
	c0.012-0.038,0.023-0.076,0.035-0.114c2.221-7.05,1.355-14.508,0.896-17.291l0.179-0.016l2.818-0.248l11.262-0.992
	c0.181,1.013,0.612,2.649,1.635,4.386c1.419,2.413,4.279,5.469,9.905,6.747c0.342,0.079,0.694,0.151,1.056,0.215
	c0.567,0.1,1.109,0.167,1.64,0.219c0.026,0.002,0.053,0.005,0.08,0.008c5.356,0.503,8.887-1.307,10.963-3.019
	c1.555-1.283,2.52-2.673,3.037-3.563l12.981,6.063c-0.143,0.267-0.313,0.603-0.493,0.971
	C201.579,26.657,197.626,36.422,200.185,46.524z M208.889,62.462l-6.711-16.232c-1.707-10.355,1.342-18.725,3.078-22.433
	c0.23-0.479,0.442-0.899,0.611-1.22c1.841,1.157,6.195,4.278,7.918,8.819c3.23,8.507,8.315,21.63,9.699,25.198L208.889,62.462z"/>
</svg>
